<?xml version="1.0" encoding="utf-8"?>
<!-- Generator: Adobe Illustrator 17.0.0, SVG Export Plug-In . SVG Version: 6.00 Build 0)  -->
<!DOCTYPE svg PUBLIC "-//W3C//DTD SVG 1.1//EN" "http://www.w3.org/Graphics/SVG/1.1/DTD/svg11.dtd">
<svg version="1.1" id="Layer_1" xmlns="http://www.w3.org/2000/svg" xmlns:xlink="http://www.w3.org/1999/xlink" x="0px" y="0px"
	 width="397.551px" height="87.937px" viewBox="0 0 397.551 87.937" enable-background="new 0 0 397.551 87.937"
	 xml:space="preserve">
<path fill="#FFFFFF" d="M21.984,87.937L0,43.969l1.832-3.664l23.816,47.632H21.984z M29.312,87.937L3.664,36.641l1.832-3.664
	l27.48,54.96H29.312z M36.641,87.937L7.328,29.312l1.832-3.664l31.145,62.289H36.641z M43.969,87.937L10.992,21.984L21.984,0h3.664
	L14.656,21.984l31.145,62.289h18.32l9.16-18.32l1.832,3.664l-9.16,18.32H43.969z M18.32,21.984L29.312,0h3.664L20.152,25.648
	L18.32,21.984z M21.984,29.312L36.641,0h3.664L23.816,32.977L21.984,29.312z M25.648,36.641L43.969,0h21.984l9.16,18.32
	l-1.832,3.664l-9.16-18.32h-18.32L27.48,40.305L25.648,36.641z"/>
<path fill="#FFFFFF" d="M84.273,87.937l32.977-65.953L106.258,0h49.465l-1.832,3.664h-42.137l9.16,18.32L87.938,87.937H84.273z
	 M84.273,0h3.664l18.32,36.641l-1.832,3.664L84.273,0z M91.602,0h3.664l14.656,29.312l-1.832,3.664L91.602,0z M91.602,87.937
	l31.145-62.289l1.832,3.664L95.266,87.937H91.602z M98.93,0h3.664l10.992,21.984l-1.832,3.664L98.93,0z M98.93,87.937l27.48-54.96
	l1.832,3.664l-25.648,51.296H98.93z M106.258,87.937l23.816-47.632l1.832,3.664l-20.152,40.304h43.969l-1.832,3.664H106.258z"/>
<path fill="#FFFFFF" d="M164.883,87.937l32.977-65.953L186.867,0h3.664l10.992,21.984l-32.977,65.953H164.883z M164.883,0h3.664
	l18.32,36.641l-1.832,3.664L164.883,0z M172.211,0h3.664l14.656,29.312l-1.832,3.664L172.211,0z M172.211,87.937l31.145-62.289
	l1.832,3.664l-29.312,58.625H172.211z M179.539,0h3.664l10.992,21.984l-1.832,3.664L179.539,0z M179.539,87.937l27.48-54.96
	l1.832,3.664l-25.648,51.296H179.539z M186.867,87.937l23.816-47.632l1.832,3.664l-20.152,40.304h43.969l-1.832,3.664H186.867z"/>
<path fill="#FFFFFF" d="M245.492,87.937l32.977-65.953L267.477,0h3.664l10.992,21.984l-32.977,65.953H245.492z M245.492,0h3.664
	l18.32,36.641l-1.832,3.664L245.492,0z M252.82,0h3.664l14.656,29.312l-1.832,3.664L252.82,0z M252.82,87.937l31.145-62.289
	l1.832,3.664l-29.312,58.625H252.82z M260.148,0h3.664l10.992,21.984l-1.832,3.664L260.148,0z M260.148,87.937l27.48-54.96
	l1.832,3.664l-25.648,51.296H260.148z M267.477,87.937l23.816-47.632l1.832,3.664l-20.152,40.304h43.969l-1.832,3.664H267.477z"/>
<path fill="#FFFFFF" d="M326.102,87.937l32.977-65.953L348.086,0h49.465l-1.832,3.664h-42.137l9.16,18.32l-32.977,65.953H326.102z
	 M326.102,0h3.664l18.32,36.641l-1.832,3.664L326.102,0z M333.43,0h3.664l14.656,29.312l-1.832,3.664L333.43,0z M333.43,87.937
	l31.145-62.289l1.832,3.664l-29.312,58.625H333.43z M340.758,0h3.664l10.992,21.984l-1.832,3.664L340.758,0z M340.758,87.937
	l27.48-54.96l1.832,3.664l-25.648,51.296H340.758z M348.086,87.937l23.816-47.632h21.984l-1.832,3.664h-18.32L351.75,87.937H348.086
	z"/>
</svg>
